<svg width="512" height="512" viewBox="0 0 512 512" xmlns="http://www.w3.org/2000/svg">
<defs>
  <linearGradient id="bg" x1="0" y1="0" x2="1" y2="1">
    <stop offset="0%" stop-color="#060a12"/>
    <stop offset="100%" stop-color="#0e1828"/>
  </linearGradient>
  <linearGradient id="gu" x1="0" y1="0" x2="0" y2="1">
    <stop offset="0%" stop-color="#4ade80"/>
    <stop offset="100%" stop-color="#15803d"/>
  </linearGradient>
  <linearGradient id="gd" x1="0" y1="0" x2="0" y2="1">
    <stop offset="0%" stop-color="#fb7185"/>
    <stop offset="100%" stop-color="#be123c"/>
  </linearGradient>
  <linearGradient id="areafill" x1="0" y1="0" x2="0" y2="1">
    <stop offset="0%" stop-color="#22c55e" stop-opacity="0.25"/>
    <stop offset="100%" stop-color="#22c55e" stop-opacity="0"/>
  </linearGradient>
</defs>
<rect width="512" height="512" fill="url(#bg)"/>
<g opacity="0.045">
  <line x1="0" y1="110" x2="512" y2="110" stroke="#22c55e" stroke-width="1"/>
  <line x1="0" y1="200" x2="512" y2="200" stroke="#22c55e" stroke-width="1"/>
  <line x1="0" y1="290" x2="512" y2="290" stroke="#22c55e" stroke-width="1"/>
  <line x1="0" y1="380" x2="512" y2="380" stroke="#22c55e" stroke-width="1"/>
  <line x1="75" y1="50" x2="75" y2="420" stroke="#22c55e" stroke-width="1"/>
  <line x1="150" y1="50" x2="150" y2="420" stroke="#22c55e" stroke-width="1"/>
  <line x1="225" y1="50" x2="225" y2="420" stroke="#22c55e" stroke-width="1"/>
  <line x1="300" y1="50" x2="300" y2="420" stroke="#22c55e" stroke-width="1"/>
  <line x1="375" y1="50" x2="375" y2="420" stroke="#22c55e" stroke-width="1"/>
  <line x1="450" y1="50" x2="450" y2="420" stroke="#22c55e" stroke-width="1"/>
</g>
<path d="M34,365 L68,329 L135,276 L202,268 L269,238 L336,183 L403,160 L465,101 L479,88 L479,415 L34,415 Z" fill="url(#areafill)"/>
<path d="M34,365 L68,329 L135,276 L202,268 L269,238 L336,183 L403,160 L465,101 L479,88" fill="none" stroke="#22c55e" stroke-width="2.5" stroke-linecap="round" stroke-linejoin="round" opacity="0.55"/>
<line x1="68" y1="300" x2="68" y2="390" stroke="#fb7185" stroke-width="2"/>
<rect x="54" y="310" width="28" height="38" rx="3" fill="url(#gd)"/>
<line x1="135" y1="265" x2="135" y2="380" stroke="#4ade80" stroke-width="2"/>
<rect x="121" y="272" width="28" height="92" rx="3" fill="url(#gu)"/>
<line x1="202" y1="248" x2="202" y2="318" stroke="#fb7185" stroke-width="2"/>
<rect x="188" y="255" width="28" height="26" rx="3" fill="url(#gd)"/>
<line x1="269" y1="178" x2="269" y2="305" stroke="#4ade80" stroke-width="2"/>
<rect x="255" y="186" width="28" height="104" rx="3" fill="url(#gu)"/>
<line x1="336" y1="148" x2="336" y2="248" stroke="#fb7185" stroke-width="2"/>
<rect x="322" y="158" width="28" height="52" rx="3" fill="url(#gd)"/>
<line x1="403" y1="112" x2="403" y2="218" stroke="#4ade80" stroke-width="2"/>
<rect x="389" y="120" width="28" height="80" rx="3" fill="url(#gu)"/>
<line x1="465" y1="72" x2="465" y2="148" stroke="#4ade80" stroke-width="2"/>
<rect x="451" y="80" width="28" height="42" rx="3" fill="url(#gu)"/>
<circle cx="256" cy="462" r="42" fill="#22c55e" fill-opacity="0.08" stroke="#22c55e" stroke-width="1.5" stroke-opacity="0.4"/>
<text x="256" y="478" text-anchor="middle" font-family="Georgia, 'Times New Roman', serif" font-size="54" font-weight="700" fill="#22c55e" fill-opacity="0.95">&#x20BF;</text>
</svg>
